<svg height="512" viewBox="0 0 60 60" width="512" xmlns="http://www.w3.org/2000/svg"><g id="Page-1" fill="none" fill-rule="evenodd"><g id="075---Occult-Scroll" fill="rgb(0,0,0)" fill-rule="nonzero" transform="translate(-1)"><path id="Shape" d="m54 46h-5v-39c-.0044086-3.86416566-3.1358343-6.99559136-7-7h-33.794c-.037 0-.073 0-.106.005s-.067-.005-.1-.005-.038.011-.059.012c-3.47006706.07230548-6.38017657 2.64079528-6.883 6.075-.2605689 1.99831591.35185469 4.0120777 1.68085883 5.5269739 1.32900414 1.5148963 3.2459093 2.3842487 5.26114117 2.3860261h5v39c.0044086 3.8641657 3.1358343 6.9955914 7 7h34c3.8659932 0 7-3.1340068 7-7s-3.1340068-7-7-7zm-46-34c-1.44060487-.0015042-2.81073236-.6235604-3.76006897-1.7071215-.94933661-1.08356109-1.38584941-2.52358185-1.19793103-3.9518785.38323595-2.49569329 2.53305954-4.33651693 5.058-4.331 2.7184088.05437465 4.8951059 2.27105181 4.9 4.99v5zm12 46c-2.7600532-.0033061-4.9966939-2.2399468-5-5v-46c.0004407-1.88335904-.7609752-3.68680747-2.111-5h29.111c2.7600532.00330612 4.9966939 2.23994685 5 5v39h-27c-.5522847 0-1 .4477153-1 1s.4477153 1 1 1c2.7614237 0 5 2.2385763 5 5s-2.2385763 5-5 5zm34 0h-29.1c1.3460529-1.3153928 2.104889-3.1179488 2.104889-5s-.7588361-3.6846072-2.104889-5h29.1c2.7614237 0 5 2.2385763 5 5s-2.2385763 5-5 5z"/><path id="Shape" d="m43.05 32c.7037783.0058195 1.3550443-.3715317 1.7-.985.3460961-.6025266.3376709-1.3454769-.022-1.94l-3.786-6.312c.274-.292.506-.553.677-.754.5064842-.5928925.5064842-1.4661075 0-2.059-1.3932788-1.6468656-3.0370537-3.0642038-4.871-4.2l-4.076-6.8c-.3500036-.58769651-.9829925-.94833842-1.6670156-.94977286s-1.318519.35654947-1.6709844.94277286l-4.08 6.8c-1.8342127 1.1358321-3.478312 2.5531591-4.872 4.2-.5060644.5930473-.5060644 1.4659527 0 2.059.172.2.4.461.677.754l-3.787 6.314c-.3590029.5940867-.3670452 1.3362734-.021 1.938.3449557.6134683.9962217.9908195 1.7.985zm-3.186-11.021c-.6717933.7544705-1.4002465 1.4565135-2.179 2.1.4283932-1.3767492.4196594-2.852418-.025-4.224.7872561.6513196 1.5240315 1.3613518 2.204 2.124zm-13.864.021c0-2.7614237 2.2385763-5 5-5s5 2.2385763 5 5-2.2385763 5-5 5c-2.7600532-.0033061-4.9966939-2.2399468-5-5zm4.953-11.025 2.632 4.39c-.6111044-.1689217-1.2369462-.2790886-1.869-.329-.4761266-.0480015-.9558734-.0480015-1.432 0-.6465025.0506324-1.2865295.1641694-1.911.339zm-6.613 8.879c-.4446594 1.371582-.4533932 2.8472508-.025 4.224-.7785106-.6437587-1.5069437-1.3457824-2.179-2.1.6802271-.7623994 1.416983-1.4724128 2.204-2.124zm-1.8 5.336c.429.379.9.767 1.418 1.146 2.0015115 1.6191522 4.4699629 2.5529713 7.042 2.664 2.5728452-.1098231 5.0424194-1.0429681 7.045-2.662.519-.38.991-.769 1.421-1.148l3.484 5.81h-23.9z"/><path id="Shape" d="m31 18c-1.6568542 0-3 1.3431458-3 3s1.3431458 3 3 3 3-1.3431458 3-3-1.3431458-3-3-3zm0 4c-.5522847 0-1-.4477153-1-1s.4477153-1 1-1 1 .4477153 1 1-.4477153 1-1 1z"/><path id="Shape" d="m19 11h6c.5522847 0 1-.4477153 1-1 0-.55228475-.4477153-1-1-1h-6c-.5522847 0-1 .44771525-1 1 0 .5522847.4477153 1 1 1z"/><path id="Shape" d="m37 11h6c.5522847 0 1-.4477153 1-1 0-.55228475-.4477153-1-1-1h-6c-.5522847 0-1 .44771525-1 1 0 .5522847.4477153 1 1 1z"/><path id="Shape" d="m36 35h-17c-.5522847 0-1 .4477153-1 1s.4477153 1 1 1h17c.5522847 0 1-.4477153 1-1s-.4477153-1-1-1z"/><path id="Shape" d="m43 35h-3c-.5522847 0-1 .4477153-1 1s.4477153 1 1 1h3c.5522847 0 1-.4477153 1-1s-.4477153-1-1-1z"/><path id="Shape" d="m30 41c.5522847 0 1-.4477153 1-1s-.4477153-1-1-1h-11c-.5522847 0-1 .4477153-1 1s.4477153 1 1 1z"/></g></g></svg>